# xmcd
#
# Track frame offsets: 
#        150
#        20015
#        41916
#
# Disc length: 822 seconds
#
# Revision: 2
# Processed by: cddbd v1.5.2PL0 Copyright (c) Steve Scherf et al.
# Submitted via: ExactAudioCopy v1.0b3
#
DISCID=22033403
DTITLE=寿美菜子 - Believe X
DYEAR=2014
DGENRE=JPop
TTITLE0=Believe X
TTITLE1=交差点
TTITLE2=Believe X (instrumental)
EXTD=YEAR: 1993
EXTT0=
EXTT1=
EXTT2=
PLAYORDER=
